# xmcd
#
# Track frame offsets: 
#        150
#        14865
#        37783
#        56028
#        69343
#        87450
#        105213
#        123425
#        139108
#        156283
#
# Disc length: 2364 seconds
#
# Revision: 3
# Processed by: cddbd v1.5.2PL0 Copyright (c) Steve Scherf et al.
# Submitted via: ExactAudioCopy v1.0b2
#
DISCID=81093a0a
DTITLE=Pablo Milanés - Querido Pablo [CD2)
DYEAR=1985
DGENRE=Nueva Trova Cubana
TTITLE0=La Vida No Vale Nada (con Chico Buarque)
TTITLE1=Años (con Mercedes Sosa)
TTITLE2=No Me Pidas
TTITLE3=Para Vivir (con Amaya Uranga)
TTITLE4=Amor (con Victor Manuel)
TTITLE5=Te Quiero Porque Te Quiero
TTITLE6=El Breve Espacio En Que No Estás (con Silvio Rodríguez)
TTITLE7=Si El Poeta Eres Tú
TTITLE8=Tengo
TTITLE9=Homenaje
EXTD=
EXTT0=
EXTT1=
EXTT2=
EXTT3=
EXTT4=
EXTT5=
EXTT6=
EXTT7=
EXTT8=
EXTT9=
PLAYORDER=
